<?xml version="1.0" encoding="utf-8"?><svg xmlns="http://www.w3.org/2000/svg" xmlns:xlink="http://www.w3.org/1999/xlink" width="1920" height="961" preserveAspectRatio="xMidYMid" viewBox="0 0 1920 961" style="z-index:1;margin-right:-2px;display:block;background-repeat-y:initial;background-repeat-x:initial;background-color:rgb(255, 255, 255);animation-play-state:paused" ><g transform="translate(960,480.5) scale(1,1) translate(-960,-480.5)" style="transform:matrix(1, 0, 0, 1, 0, 0);animation-play-state:paused" ><path id="path0" d="M 896.2148061417672 123.85832465466093
c 0 30.590231408697967 -7.484843855319714 8.786555830157926 -16.27139968547764 8.786555830157926
S 863.672006770812 154.4485560633589 863.672006770812 123.85832465466093
s 7.484843855319714 -8.786555830157926 16.27139968547764 -8.786555830157926
S 896.2148061417672 93.26809324596297 896.2148061417672 123.85832465466093
z" fill="none" stroke="none" style="animation-play-state:paused" ></path>


<circle cx="0" cy="0" r="4.458209059391284" fill="#51cacc" opacity="0.9" transform="translate(896.1297607421875 118.75439453125)" style="opacity:0.9;animation-play-state:paused" ></circle>
<path id="path1" d="M 1291.6413635411693 326.5543578001459
c 0 19.268312093118574 -4.714587001507735 5.534515175682994 -10.24910217719073 5.534515175682994
S 1271.143159186788 345.8226698932645 1271.143159186788 326.5543578001459
s 4.714587001507735 -5.534515175682994 10.24910217719073 -5.534515175682994
S 1291.6413635411693 307.2860457070273 1291.6413635411693 326.5543578001459
z" fill="none" stroke="none" style="animation-play-state:paused" ></path>


<circle cx="0" cy="0" r="7.768593959991255" fill="#51cacc" opacity="0.9" transform="translate(1288.9637451171875 336.7209167480469)" style="opacity:0.9;animation-play-state:paused" ></circle>
<path id="path2" d="M 870.0751208053047 862.5199819206925
c 0 27.323553691732037 -6.685550371381242 7.848254783795373 -14.533805155176616 7.848254783795373
S 841.0075104949514 889.8435356124246 841.0075104949514 862.5199819206925
s 6.685550371381242 -7.848254783795373 14.533805155176616 -7.848254783795373
S 870.0751208053047 835.1964282289605 870.0751208053047 862.5199819206925
z" fill="none" stroke="none" style="animation-play-state:paused" ></path>


<circle cx="0" cy="0" r="4.129293513528567" fill="#51cacc" opacity="0.9" transform="translate(868.9705810546875 875.0974731445312)" style="opacity:0.9;animation-play-state:paused" ></circle>
<path id="path3" d="M 1773.013428644121 848.4489336565994
c 0 35.579541706728314 -8.705632545263311 10.219655596613453 -18.925288141876763 10.219655596613453
S 1735.1628523603674 884.0284753633276 1735.1628523603674 848.4489336565994
s 8.705632545263311 -10.219655596613453 18.925288141876763 -10.219655596613453
S 1773.013428644121 812.8693919498711 1773.013428644121 848.4489336565994
z" fill="none" stroke="none" style="animation-play-state:paused" ></path>


<circle cx="0" cy="0" r="7.077606059948443" fill="#de9dd6" opacity="0.9" transform="translate(1771.8153076171875 864.040771484375)" style="opacity:0.9;animation-play-state:paused" ></circle>
<path id="path4" d="M 982.636131170211 20.866697116215164
c 0 21.678510507423148 -5.304316400752472 6.22680620957899 -11.531122610331462 6.22680620957899
S 959.5738859495482 42.54520762363831 959.5738859495482 20.866697116215164
s 5.304316400752472 -6.22680620957899 11.531122610331462 -6.22680620957899
S 982.636131170211 -0.8118133912079841 982.636131170211 20.866697116215164
z" fill="none" stroke="none" style="animation-play-state:paused" ></path>


<circle cx="0" cy="0" r="5.988902205185739" fill="#ff708e" opacity="0.9" transform="translate(960.7144165039062 31.47664451599121)" style="opacity:0.9;animation-play-state:paused" ></circle>
<path id="path5" d="M 655.7212346712706 425.6306355341878
c 0 19.10137625160532 -4.673740997733216 5.486565519078123 -10.160306516811339 5.486565519078123
S 635.4006216376479 444.7320117857931 635.4006216376479 425.6306355341878
s 4.673740997733216 -5.486565519078123 10.160306516811339 -5.486565519078123
S 655.7212346712706 406.5292592825825 655.7212346712706 425.6306355341878
z" fill="none" stroke="none" style="animation-play-state:paused" ></path>


<circle cx="0" cy="0" r="6.84782476907673" fill="#9df871" opacity="0.9" transform="translate(642.2809448242188 418.79620361328125)" style="opacity:0.9;animation-play-state:paused" ></circle>
<path id="path6" d="M 1127.4442028309604 48.955377977945545
c 0 32.58603777873307 -7.973179456498517 9.359819361976522 -17.332998818475037 9.359819361976522
S 1092.7782051940103 81.54141575667862 1092.7782051940103 48.955377977945545
s 7.973179456498517 -9.359819361976522 17.332998818475037 -9.359819361976522
S 1127.4442028309604 16.369340199212473 1127.4442028309604 48.955377977945545
z" fill="none" stroke="none" style="animation-play-state:paused" ></path>


<circle cx="0" cy="0" r="7.200708157435518" fill="#9df871" opacity="0.9" transform="translate(1097.220947265625 31.73084259033203)" style="opacity:0.9;animation-play-state:paused" ></circle>
<path id="path7" d="M 232.22601786457093 325.11138766348614
c 0 21.715890598816678 -5.313462593327484 6.237543044340961 -11.551005637668446 6.237543044340961
S 209.12400658923403 346.8272782623028 209.12400658923403 325.11138766348614
s 5.313462593327484 -6.237543044340961 11.551005637668446 -6.237543044340961
S 232.22601786457093 303.3954970646695 232.22601786457093 325.11138766348614
z" fill="none" stroke="none" style="animation-play-state:paused" ></path>


<circle cx="0" cy="0" r="5.923246669598404" fill="#de9dd6" opacity="0.9" transform="translate(215.45285034179688 334.0857238769531)" style="opacity:0.9;animation-play-state:paused" ></circle>
<path id="path8" d="M 302.6850774704988 421.9063428666421
c 0 32.834042229011814 -8.033861396460336 9.431054682801266 -17.464916079261602 9.431054682801266
S 267.75524531197556 454.7403850956539 267.75524531197556 421.9063428666421
s 8.033861396460336 -9.431054682801266 17.464916079261602 -9.431054682801266
S 302.6850774704988 389.0723006376303 302.6850774704988 421.9063428666421
z" fill="none" stroke="none" style="animation-play-state:paused" ></path>


<circle cx="0" cy="0" r="4.176111488930744" fill="#ff708e" opacity="0.9" transform="translate(302.1726989746094 433.09503173828125)" style="opacity:0.9;animation-play-state:paused" ></circle>
<path id="path9" d="M 1054.8047275447234 286.46239289405645
c 0 21.669398786291037 -5.302086937071211 6.224189013083596 -11.526275950154808 6.224189013083596
S 1031.752175644414 308.1317916803475 1031.752175644414 286.46239289405645
s 5.302086937071211 -6.224189013083596 11.526275950154808 -6.224189013083596
S 1054.8047275447234 264.7929941077654 1054.8047275447234 286.46239289405645
z" fill="none" stroke="none" style="animation-play-state:paused" ></path>


<circle cx="0" cy="0" r="6.7085379368486056" fill="#51cacc" opacity="0.9" transform="translate(1047.5438232421875 294.6321716308594)" style="opacity:0.9;animation-play-state:paused" ></circle>
<path id="path10" d="M 891.5411612166859 497.82953719603614
c 0 27.447493403483904 -6.715876045533295 7.883854488234739 -14.599730533768033 7.883854488234739
S 862.3417001491498 525.27703059952 862.3417001491498 497.82953719603614
s 6.715876045533295 -7.883854488234739 14.599730533768033 -7.883854488234739
S 891.5411612166859 470.3820437925522 891.5411612166859 497.82953719603614
z" fill="none" stroke="none" style="animation-play-state:paused" ></path>


<circle cx="0" cy="0" r="7.353261449927631" fill="#9df871" opacity="0.9" transform="translate(862.8577270507812 487.8345031738281)" style="opacity:0.9;animation-play-state:paused" ></circle>
<path id="path11" d="M 833.5198983252665 689.1845722667608
c 0 25.869400936079572 -6.3297470375513845 7.4305726092994515 -13.760319646850835 7.4305726092994515
S 805.9992590315649 715.0539732028404 805.9992590315649 689.1845722667608
s 6.3297470375513845 -7.4305726092994515 13.760319646850835 -7.4305726092994515
S 833.5198983252665 663.3151713306812 833.5198983252665 689.1845722667608
z" fill="none" stroke="none" style="animation-play-state:paused" ></path>


<circle cx="0" cy="0" r="5.458761889817042" fill="#51cacc" opacity="0.9" transform="translate(823.0130615234375 680.7197875976562)" style="opacity:0.9;animation-play-state:paused" ></circle>
<path id="path12" d="M 161.44893322181485 93.9311886183657
c 0 33.54294088513692 -8.207315322959033 9.634674509560606 -17.841989832519637 9.634674509560606
S 125.7649535567756 127.47412950350261 125.7649535567756 93.9311886183657
s 8.207315322959033 -9.634674509560606 17.841989832519637 -9.634674509560606
S 161.44893322181485 60.38824773322877 161.44893322181485 93.9311886183657
z" fill="none" stroke="none" style="animation-play-state:paused" ></path>


<circle cx="0" cy="0" r="7.290917713501148" fill="#51cacc" opacity="0.9" transform="translate(161.09976196289062 103.7354965209961)" style="opacity:0.9;animation-play-state:paused" ></circle>
<path id="path13" d="M 1713.0112853989488 621.0520221401262
c 0 37.17706415383861 -9.096515697215828 10.67851842716641 -19.775034124382238 10.67851842716641
S 1673.4612171501842 658.2290862939648 1673.4612171501842 621.0520221401262
s 9.096515697215828 -10.67851842716641 19.775034124382238 -10.67851842716641
S 1713.0112853989488 583.8749579862875 1713.0112853989488 621.0520221401262
z" fill="none" stroke="none" style="animation-play-state:paused" ></path>


<circle cx="0" cy="0" r="6.240360862903725" fill="#ff708e" opacity="0.9" transform="translate(1712.9615478515625 616.627197265625)" style="opacity:0.9;animation-play-state:paused" ></circle>
<path id="path14" d="M 1227.0468855220067 773.7601341677512
c 0 34.35687534803451 -8.406469500050996 9.86846419571204 -18.274933695763036 9.86846419571204
S 1190.4970181304805 808.1170095157856 1190.4970181304805 773.7601341677512
s 8.406469500050996 -9.86846419571204 18.274933695763036 -9.86846419571204
S 1227.0468855220067 739.4032588197167 1227.0468855220067 773.7601341677512
z" fill="none" stroke="none" style="animation-play-state:paused" ></path>


<circle cx="0" cy="0" r="4.428389105195943" fill="#ff708e" opacity="0.9" transform="translate(1190.61572265625 780.0720825195312)" style="opacity:0.9;animation-play-state:paused" ></circle>
<path id="path15" d="M 202.72427719109174 835.8477980139747
c 0 32.747095097344804 -8.012587098286494 9.406080506684146 -17.41866760497064 9.406080506684146
S 167.88694198115047 868.5948931113195 167.88694198115047 835.8477980139747
s 8.012587098286494 -9.406080506684146 17.41866760497064 -9.406080506684146
S 202.72427719109174 803.10070291663 202.72427719109174 835.8477980139747
z" fill="none" stroke="none" style="animation-play-state:paused" ></path>


<circle cx="0" cy="0" r="7.403194820874228" fill="#9df871" opacity="0.9" transform="translate(176.33799743652344 821.367431640625)" style="opacity:0.9;animation-play-state:paused" ></circle>
<path id="path16" d="M 1480.3877340245888 214.34998847780287
c 0 29.719827709872675 -7.2718727375220364 8.536546257091087 -15.808418994613124 8.536546257091087
S 1448.7708960353627 244.06981618767554 1448.7708960353627 214.34998847780287
s 7.2718727375220364 -8.536546257091087 15.808418994613124 -8.536546257091087
S 1480.3877340245888 184.6301607679302 1480.3877340245888 214.34998847780287
z" fill="none" stroke="none" style="animation-play-state:paused" ></path>


<circle cx="0" cy="0" r="5.922724080994986" fill="#51cacc" opacity="0.9" transform="translate(1448.786376953125 212.10594177246094)" style="opacity:0.9;animation-play-state:paused" ></circle>
<path id="path17" d="M 1161.5673332516399 935.7185268430493
c 0 21.02601670439766 -5.14466366171432 6.039387776795072 -11.184051438509393 6.039387776795072
S 1139.199230374621 956.7445435474469 1139.199230374621 935.7185268430493
s 5.14466366171432 -6.039387776795072 11.184051438509393 -6.039387776795072
S 1161.5673332516399 914.6925101386516 1161.5673332516399 935.7185268430493
z" fill="none" stroke="none" style="animation-play-state:paused" ></path>


<circle cx="0" cy="0" r="5.174787906007799" fill="#de9dd6" opacity="0.9" transform="translate(1157.3197021484375 925.4365234375)" style="opacity:0.9;animation-play-state:paused" ></circle>
<path id="path18" d="M 1861.8810585673627 64.21006866395865
c 0 28.3984945919722 -6.948567825695324 8.15701440407712 -15.105582229772445 8.15701440407712
S 1831.669894107818 92.60856325593085 1831.669894107818 64.21006866395865
s 6.948567825695324 -8.15701440407712 15.105582229772445 -8.15701440407712
S 1861.8810585673627 35.811574071986456 1861.8810585673627 64.21006866395865
z" fill="none" stroke="none" style="animation-play-state:paused" ></path>


<circle cx="0" cy="0" r="5.942305083589782" fill="#51cacc" opacity="0.9" transform="translate(1832.542724609375 76.33142852783203)" style="opacity:0.9;animation-play-state:paused" ></circle>
<path id="path19" d="M 302.47130154462286 169.95627013917667
c 0 22.44922029071834 -5.492894326452359 6.448180296270162 -11.941074622722521 6.448180296270162
S 278.58915229917784 192.405490429895 278.58915229917784 169.95627013917667
s 5.492894326452359 -6.448180296270162 11.941074622722521 -6.448180296270162
S 302.47130154462286 147.50704984845834 302.47130154462286 169.95627013917667
z" fill="none" stroke="none" style="animation-play-state:paused" ></path>


<circle cx="0" cy="0" r="7.110301215935617" fill="#ff708e" opacity="0.9" transform="translate(278.6000061035156 168.3094940185547)" style="opacity:0.9;animation-play-state:paused" ></circle>
<path id="path20" d="M 1017.8908720238619 451.20433673763887
c 0 19.99780184867208 -4.8930791757389125 5.7440494671717675 -10.63712864291068 5.7440494671717675
S 996.6166147380407 471.2021385863109 996.6166147380407 451.20433673763887
s 4.8930791757389125 -5.7440494671717675 10.63712864291068 -5.7440494671717675
S 1017.8908720238619 431.2065348889668 1017.8908720238619 451.20433673763887
z" fill="none" stroke="none" style="animation-play-state:paused" ></path>


<circle cx="0" cy="0" r="5.8879273340559655" fill="#9df871" opacity="0.9" transform="translate(997.1484375 459.3720703125)" style="opacity:0.9;animation-play-state:paused" ></circle>
<path id="path21" d="M 733.7425655264149 868.0967358906531
c 0 33.88085163021379 -8.289995611648054 9.731733978891196 -18.021729590539252 9.731733978891196
S 697.6991063453363 901.9775875208669 697.6991063453363 868.0967358906531
s 8.289995611648054 -9.731733978891196 18.021729590539252 -9.731733978891196
S 733.7425655264149 834.2158842604393 733.7425655264149 868.0967358906531
z" fill="none" stroke="none" style="animation-play-state:paused" ></path>


<circle cx="0" cy="0" r="7.36957958136166" fill="#ff708e" opacity="0.9" transform="translate(703.1141357421875 850.5553588867188)" style="opacity:0.9;animation-play-state:paused" ></circle>
<path id="path22" d="M 664.3363831328614 341.461538145177
c 0 19.58187162363923 -4.791309014294704 5.624580147215523 -10.415889161510227 5.624580147215523
S 643.504604809841 361.0434097688162 643.504604809841 341.461538145177
s 4.791309014294704 -5.624580147215523 10.415889161510227 -5.624580147215523
S 664.3363831328614 321.87966652153773 664.3363831328614 341.461538145177
z" fill="none" stroke="none" style="animation-play-state:paused" ></path>


<circle cx="0" cy="0" r="6.269043780963032" fill="#51cacc" opacity="0.9" transform="translate(664.3203735351562 343.3083190917969)" style="opacity:0.9;animation-play-state:paused" ></circle>
<path id="path23" d="M 1410.2955486634937 26.06834136158824
c 0 32.78135357648724 -8.020969492119217 9.415920708139952 -17.43689020025917 9.415920708139952
S 1375.4217682629755 58.84969493807548 1375.4217682629755 26.06834136158824
s 8.020969492119217 -9.415920708139952 17.43689020025917 -9.415920708139952
S 1410.2955486634937 -6.713012214899003 1410.2955486634937 26.06834136158824
z" fill="none" stroke="none" style="animation-play-state:paused" ></path>


<circle cx="0" cy="0" r="4.221685452002161" fill="#e0ff77" opacity="0.9" transform="translate(1375.44677734375 23.066184997558594)" style="opacity:0.9;animation-play-state:paused" ></circle>
<path id="path24" d="M 167.82803321497192 420.68946825245393
c 0 37.316075114439705 -9.130529017362907 10.718447107339065 -19.84897612470197 10.718447107339065
S 128.13008096556797 458.0055433668936 128.13008096556797 420.68946825245393
s 9.130529017362907 -10.718447107339065 19.84897612470197 -10.718447107339065
S 167.82803321497192 383.37339313801425 167.82803321497192 420.68946825245393
z" fill="none" stroke="none" style="animation-play-state:paused" ></path>


<circle cx="0" cy="0" r="6.147798846918773" fill="#ff708e" opacity="0.9" transform="translate(156.39578247070312 405.7421875)" style="opacity:0.9;animation-play-state:paused" ></circle>
<path id="path25" d="M 554.1400908847139 386.4195145261767
c 0 36.626446520618785 -8.961790106108852 10.520362298475609 -19.48215240458446 10.520362298475609
S 515.175786075545 423.0459610467955 515.175786075545 386.4195145261767
s 8.961790106108852 -10.520362298475609 19.48215240458446 -10.520362298475609
S 554.1400908847139 349.7930680055579 554.1400908847139 386.4195145261767
z" fill="none" stroke="none" style="animation-play-state:paused" ></path>


<circle cx="0" cy="0" r="6.293398678452979" fill="#e0ff77" opacity="0.9" transform="translate(515.391357421875 394.8943176269531)" style="opacity:0.9;animation-play-state:paused" ></circle>
<path id="path26" d="M 91.36448263279078 210.51103770491633
c 0 29.743632270416136 -7.277697257655011 8.543383737247188 -15.8210809949022 8.543383737247188
S 59.722320642986375 240.25466997533246 59.722320642986375 210.51103770491633
s 7.277697257655011 -8.543383737247188 15.8210809949022 -8.543383737247188
S 91.36448263279078 180.7674054345002 91.36448263279078 210.51103770491633
z" fill="none" stroke="none" style="animation-play-state:paused" ></path>


<circle cx="0" cy="0" r="6.963544003952724" fill="#de9dd6" opacity="0.9" transform="translate(91.36434936523438 210.4448699951172)" style="opacity:0.9;animation-play-state:paused" ></circle>
<path id="path27" d="M 760.5234308436761 99.74688129284941
c 0 30.778200667528303 -7.530836333544158 8.840547000247492 -16.37138333379165 8.840547000247492
S 727.7806641760928 130.52508196037772 727.7806641760928 99.74688129284941
s 7.530836333544158 -8.840547000247492 16.37138333379165 -8.840547000247492
S 760.5234308436761 68.9686806253211 760.5234308436761 99.74688129284941
z" fill="none" stroke="none" style="animation-play-state:paused" ></path>


<circle cx="0" cy="0" r="6.312353563834202" fill="#de9dd6" opacity="0.9" transform="translate(732.3612670898438 83.63678741455078)" style="opacity:0.9;animation-play-state:paused" ></circle>
<path id="path28" d="M 1031.2045558851833 239.44915232345588
c 0 25.771101171922577 -6.305694967598076 7.402337570658613 -13.708032538256688 7.402337570658613
S 1003.7884908086698 265.2202534953785 1003.7884908086698 239.44915232345588
s 6.305694967598076 -7.402337570658613 13.708032538256688 -7.402337570658613
S 1031.2045558851833 213.6780511515333 1031.2045558851833 239.44915232345588
z" fill="none" stroke="none" style="animation-play-state:paused" ></path>


<circle cx="0" cy="0" r="7.63036058233174" fill="#ff708e" opacity="0.9" transform="translate(1004.466552734375 228.9582977294922)" style="opacity:0.9;animation-play-state:paused" ></circle>
<path id="path29" d="M 82.1427560149148 698.7581741453399
c 0 19.002476502137263 -4.649542122863372 5.458158144230916 -10.107700267094287 5.458158144230916
S 61.92735548072622 717.7606506474772 61.92735548072622 698.7581741453399
s 4.649542122863372 -5.458158144230916 10.107700267094287 -5.458158144230916
S 82.1427560149148 679.7556976432027 82.1427560149148 698.7581741453399
z" fill="none" stroke="none" style="animation-play-state:paused" ></path>


<circle cx="0" cy="0" r="5.233296846340496" fill="#9df871" opacity="0.9" transform="translate(77.85375213623047 689.8294067382812)" style="opacity:0.9;animation-play-state:paused" ></circle></g></svg>