<?xml version="1.0" encoding="utf-8"?><svg xmlns="http://www.w3.org/2000/svg" xmlns:xlink="http://www.w3.org/1999/xlink" width="1920" height="961" preserveAspectRatio="xMidYMid" viewBox="0 0 1920 961" style="z-index:1;margin-right:-2px;display:block;background-repeat-y:initial;background-repeat-x:initial;background-color:rgb(255, 255, 255);animation-play-state:paused" ><g transform="translate(960,480.5) scale(1,1) translate(-960,-480.5)" style="transform:matrix(1, 0, 0, 1, 0, 0);animation-play-state:paused" ><linearGradient id="lg-0.24159934641546443" x1="0" x2="1" y1="0" y2="0" style="animation-play-state:paused" ><stop stop-color="#ff00ff" offset="0" style="animation-play-state:paused" ></stop>

  
<stop stop-color="#00ffff" offset="1" style="animation-play-state:paused" ></stop></linearGradient>
<path d="M 0 0 L 0 840.328 Q 192 877.038 384 842.583 T 768 697.371 T 1152 649.77 T 1536 573.23 T 1920 462.756 L 1920 0 Z" fill="url(#lg-0.24159934641546443)" opacity="0.4" style="opacity:0.4;animation-play-state:paused" ></path>
<path d="M 0 0 L 0 865.313 Q 192 750.523 384 723.644 T 768 632.682 T 1152 530.591 T 1536 513.028 T 1920 372.297 L 1920 0 Z" fill="url(#lg-0.24159934641546443)" opacity="0.4" style="opacity:0.4;animation-play-state:paused" ></path>
<path d="M 0 0 L 0 789.68 Q 192 805.972 384 783.148 T 768 681.085 T 1152 595.836 T 1536 534.144 T 1920 333.96 L 1920 0 Z" fill="url(#lg-0.24159934641546443)" opacity="0.4" style="opacity:0.4;animation-play-state:paused" ></path>
<path d="M 0 0 L 0 847.759 Q 192 729.223 384 707.626 T 768 725.661 T 1152 612.112 T 1536 584.739 T 1920 518.701 L 1920 0 Z" fill="url(#lg-0.24159934641546443)" opacity="0.4" style="opacity:0.4;animation-play-state:paused" ></path>
<path d="M 0 0 L 0 894.275 Q 192 769.447 384 737.471 T 768 714.809 T 1152 619.811 T 1536 444.609 T 1920 348.261 L 1920 0 Z" fill="url(#lg-0.24159934641546443)" opacity="0.4" style="opacity:0.4;animation-play-state:paused" ></path></g></svg>