<?xml version="1.0" encoding="utf-8"?><svg xmlns="http://www.w3.org/2000/svg" xmlns:xlink="http://www.w3.org/1999/xlink" width="1920" height="961" preserveAspectRatio="xMidYMid" viewBox="0 0 1920 961" style="z-index:1;margin-right:-2px;display:block;background-repeat-y:initial;background-repeat-x:initial;background-color:rgb(241, 242, 243);animation-play-state:paused" ><g transform="translate(960,480.5) scale(1,1) translate(-960,-480.5)" style="transform:matrix(1, 0, 0, 1, 0, 0);animation-play-state:paused" ><linearGradient id="lg-0.9471674290080938" x1="0" x2="1" y1="0" y2="0" style="animation-play-state:paused" ><stop stop-color="#334ac0" offset="0" style="animation-play-state:paused" ></stop>

  
<stop stop-color="#cccccc" offset="1" style="animation-play-state:paused" ></stop></linearGradient>
<path d="M 0 0 L 0 810.418 Q 192 823.342 384 775.173 T 768 677.31 T 1152 609.718 T 1536 514.597 T 1920 537.227 L 1920 0 Z" fill="url(#lg-0.9471674290080938)" opacity="0.4" style="opacity:0.4;animation-play-state:paused" ></path>
<path d="M 0 0 L 0 878.024 Q 192 791.943 384 753.426 T 768 704.961 T 1152 673.742 T 1536 459.681 T 1920 421.482 L 1920 0 Z" fill="url(#lg-0.9471674290080938)" opacity="0.4" style="opacity:0.4;animation-play-state:paused" ></path>
<path d="M 0 0 L 0 882.489 Q 192 762.057 384 716.285 T 768 740.458 T 1152 698.453 T 1536 464.846 T 1920 373.535 L 1920 0 Z" fill="url(#lg-0.9471674290080938)" opacity="0.4" style="opacity:0.4;animation-play-state:paused" ></path>
<path d="M 0 0 L 0 845.647 Q 192 816 384 797.332 T 768 700.326 T 1152 575.12 T 1536 484.492 T 1920 342.587 L 1920 0 Z" fill="url(#lg-0.9471674290080938)" opacity="0.4" style="opacity:0.4;animation-play-state:paused" ></path>
<path d="M 0 0 L 0 867.396 Q 192 827.442 384 804.859 T 768 659.041 T 1152 662.114 T 1536 552.752 T 1920 423.981 L 1920 0 Z" fill="url(#lg-0.9471674290080938)" opacity="0.4" style="opacity:0.4;animation-play-state:paused" ></path></g></svg>