<?xml version="1.0" encoding="utf-8"?><svg xmlns="http://www.w3.org/2000/svg" xmlns:xlink="http://www.w3.org/1999/xlink" width="1920" height="961" preserveAspectRatio="xMidYMid" viewBox="0 0 1920 961" style="z-index:1;margin-right:-2px;display:block;background-repeat-y:initial;background-repeat-x:initial;background-color:rgb(245, 248, 255);animation-play-state:paused" ><g transform="translate(960,480.5) scale(1,1) translate(-960,-480.5)" style="transform:matrix(1, 0, 0, 1, 0, 0);animation-play-state:paused" ><path id="path0" d="M 1913.4655369498414 945.473846036927
c 0 30.41085175706188 -7.440953089493863 8.735031887666711 -16.175984977160574 8.735031887666711
S 1881.1135669955202 975.8846977939888 1881.1135669955202 945.473846036927
s 7.440953089493863 -8.735031887666711 16.175984977160574 -8.735031887666711
S 1913.4655369498414 915.062994279865 1913.4655369498414 945.473846036927
z" fill="none" stroke="none" style="animation-play-state:paused" ></path>


<circle cx="0" cy="0" r="5.254886158376418" fill="#de9dd6" opacity="0.9" transform="translate(1882.4354248046875 931.2190551757812)" style="opacity:0.9;animation-play-state:paused" ></circle>
<path id="path1" d="M 1636.023386211738 580.2900753315087
c 0 35.96976407257423 -8.80111248584263 10.331740744250045 -19.132853230092675 10.331740744250045
S 1597.7576797515526 616.2598394040829 1597.7576797515526 580.2900753315087
s 8.80111248584263 -10.331740744250045 19.132853230092675 -10.331740744250045
S 1636.023386211738 544.3203112589345 1636.023386211738 580.2900753315087
z" fill="none" stroke="none" style="animation-play-state:paused" ></path>


<circle cx="0" cy="0" r="4.401343925317285" fill="#51cacc" opacity="0.9" transform="translate(1598.298583984375 592.377197265625)" style="opacity:0.9;animation-play-state:paused" ></circle>
<path id="path2" d="M 574.060881541948 636.1395045015744
c 0 36.35880800572005 -8.89630408650597 10.443487405898313 -19.33979149240428 10.443487405898313
S 535.3812985571394 672.4983125072945 535.3812985571394 636.1395045015744
s 8.89630408650597 -10.443487405898313 19.33979149240428 -10.443487405898313
S 574.060881541948 599.7806964958543 574.060881541948 636.1395045015744
z" fill="none" stroke="none" style="animation-play-state:paused" ></path>


<circle cx="0" cy="0" r="4.791899100742289" fill="#51cacc" opacity="0.9" transform="translate(559.6569213867188 648.2568359375)" style="opacity:0.9;animation-play-state:paused" ></circle>
<path id="path3" d="M 310.21759277181206 546.3939206178558
c 0 20.526076070368486 -5.0223377618986715 5.8957878074462675 -10.918125569344939 5.8957878074462675
S 288.38134163312213 566.9199966882243 288.38134163312213 546.3939206178558
s 5.0223377618986715 -5.8957878074462675 10.918125569344939 -5.8957878074462675
S 310.21759277181206 525.8678445474873 310.21759277181206 546.3939206178558
z" fill="none" stroke="none" style="animation-play-state:paused" ></path>


<circle cx="0" cy="0" r="4.8416752591794445" fill="#ff708e" opacity="0.9" transform="translate(288.3816833496094 546.571533203125)" style="opacity:0.9;animation-play-state:paused" ></circle>
<path id="path4" d="M 1278.7854605869304 429.32315021398375
c 0 19.335319387175126 -4.730982403244977 5.553761951635409 -10.284744354880386 5.553761951635409
S 1258.2159718771697 448.65846960115886 1258.2159718771697 429.32315021398375
s 4.730982403244977 -5.553761951635409 10.284744354880386 -5.553761951635409
S 1278.7854605869304 409.98783082680865 1278.7854605869304 429.32315021398375
z" fill="none" stroke="none" style="animation-play-state:paused" ></path>


<circle cx="0" cy="0" r="4.875559232669203" fill="#de9dd6" opacity="0.9" transform="translate(1258.23095703125 431.1048278808594)" style="opacity:0.9;animation-play-state:paused" ></circle>
<path id="path5" d="M 1644.0212639814913 491.67157879602075
c 0 34.85116122705071 -8.527411789597513 10.01043992691882 -18.537851716516332 10.01043992691882
S 1606.9455605484586 526.5227400230715 1606.9455605484586 491.67157879602075
s 8.527411789597513 -10.01043992691882 18.537851716516332 -10.01043992691882
S 1644.0212639814913 456.82041756897 1644.0212639814913 491.67157879602075
z" fill="none" stroke="none" style="animation-play-state:paused" ></path>


<circle cx="0" cy="0" r="4.2882158916210225" fill="#51cacc" opacity="0.9" transform="translate(1638.3746337890625 473.67120361328125)" style="opacity:0.9;animation-play-state:paused" ></circle>
<path id="path6" d="M 349.2860028372453 778.3297300414742
c 0 27.723420223629507 -6.783390054717857 7.963110064234007 -14.746500118951865 7.963110064234007
S 319.79300259934155 806.0531502651038 319.79300259934155 778.3297300414742
s 6.783390054717857 -7.963110064234007 14.746500118951865 -7.963110064234007
S 349.2860028372453 750.6063098178447 349.2860028372453 778.3297300414742
z" fill="none" stroke="none" style="animation-play-state:paused" ></path>


<circle cx="0" cy="0" r="4.569531859907612" fill="#ff708e" opacity="0.9" transform="translate(321.6865539550781 792.552978515625)" style="opacity:0.9;animation-play-state:paused" ></circle>
<path id="path7" d="M 1752.186261078175 406.88748632409704
c 0 21.141676892793207 -5.1729634950451455 6.072609320270389 -11.245572815315533 6.072609320270389
S 1729.6951154475441 428.02916321689025 1729.6951154475441 406.88748632409704
s 5.1729634950451455 -6.072609320270389 11.245572815315533 -6.072609320270389
S 1752.186261078175 385.7458094313038 1752.186261078175 406.88748632409704
z" fill="none" stroke="none" style="animation-play-state:paused" ></path>


<circle cx="0" cy="0" r="6.056995392022047" fill="#9df871" opacity="0.9" transform="translate(1729.728759765625 409.6263122558594)" style="opacity:0.9;animation-play-state:paused" ></circle>
<path id="path8" d="M 859.1288759344875 627.9055344035019
c 0 27.202867739365463 -6.65602082984474 7.813589669817739 -14.46961049966248 7.813589669817739
S 830.1896549351625 655.1084021428674 830.1896549351625 627.9055344035019
s 6.65602082984474 -7.813589669817739 14.46961049966248 -7.813589669817739
S 859.1288759344875 600.7026666641364 859.1288759344875 627.9055344035019
z" fill="none" stroke="none" style="animation-play-state:paused" ></path>


<circle cx="0" cy="0" r="6.205726027964994" fill="#e0ff77" opacity="0.9" transform="translate(858.8477783203125 635.8294067382812)" style="opacity:0.9;animation-play-state:paused" ></circle>
<path id="path9" d="M 471.6938393738393 802.3078493911039
c 0 35.76611542666695 -8.75128356184404 10.273245920425614 -19.024529482269653 10.273245920425614
S 433.6447804093 838.0739648177708 433.6447804093 802.3078493911039
s 8.75128356184404 -10.273245920425614 19.024529482269653 -10.273245920425614
S 471.6938393738393 766.541733964437 471.6938393738393 802.3078493911039
z" fill="none" stroke="none" style="animation-play-state:paused" ></path>


<circle cx="0" cy="0" r="4.946382597035048" fill="#9df871" opacity="0.9" transform="translate(446.89178466796875 789.7732543945312)" style="opacity:0.9;animation-play-state:paused" ></circle>
<path id="path10" d="M 1612.3930653618606 287.1480836348592
c 0 27.14054766326409 -6.640772300585894 7.79568922242692 -14.436461523012813 7.79568922242692
S 1583.5201423158348 314.2886312981233 1583.5201423158348 287.1480836348592
s 6.640772300585894 -7.79568922242692 14.436461523012813 -7.79568922242692
S 1612.3930653618606 260.0075359715951 1612.3930653618606 287.1480836348592
z" fill="none" stroke="none" style="animation-play-state:paused" ></path>


<circle cx="0" cy="0" r="4.588457386400463" fill="#de9dd6" opacity="0.9" transform="translate(1584.6083984375 299.6156005859375)" style="opacity:0.9;animation-play-state:paused" ></circle>
<path id="path11" d="M 1455.531032006764 779.5837123625523
c 0 24.49355427698187 -5.993103706070031 7.0353826114735165 -13.028486317543548 7.0353826114735165
S 1429.4740593716767 804.0772666395342 1429.4740593716767 779.5837123625523
s 5.993103706070031 -7.0353826114735165 13.028486317543548 -7.0353826114735165
S 1455.531032006764 755.0901580855705 1455.531032006764 779.5837123625523
z" fill="none" stroke="none" style="animation-play-state:paused" ></path>


<circle cx="0" cy="0" r="7.700562061889934" fill="#9df871" opacity="0.9" transform="translate(1455.41259765625 784.794189453125)" style="opacity:0.9;animation-play-state:paused" ></circle>
<path id="path12" d="M 1586.6790034413527 434.45168107226846
c 0 28.94949407370976 -7.0833868478226005 8.315280212661314 -15.398667060483914 8.315280212661314
S 1555.881669320385 463.40117514597824 1555.881669320385 434.45168107226846
s 7.0833868478226005 -8.315280212661314 15.398667060483914 -8.315280212661314
S 1586.6790034413527 405.50218699855867 1586.6790034413527 434.45168107226846
z" fill="none" stroke="none" style="animation-play-state:paused" ></path>


<circle cx="0" cy="0" r="5.466248582923341" fill="#ff708e" opacity="0.9" transform="translate(1555.8822021484375 434.5863037109375)" style="opacity:0.9;animation-play-state:paused" ></circle>
<path id="path13" d="M 701.4462779695746 282.0598800903035
c 0 24.400116211548184 -5.970241200697959 7.008544018210649 -12.978785218908609 7.008544018210649
S 675.4887075317574 306.45999630185173 675.4887075317574 282.0598800903035
s 5.970241200697959 -7.008544018210649 12.978785218908609 -7.008544018210649
S 701.4462779695746 257.6597638787553 701.4462779695746 282.0598800903035
z" fill="none" stroke="none" style="animation-play-state:paused" ></path>


<circle cx="0" cy="0" r="6.1420206389797185" fill="#e0ff77" opacity="0.9" transform="translate(701.193603515625 289.1729431152344)" style="opacity:0.9;animation-play-state:paused" ></circle>
<path id="path14" d="M 527.6866526045616 943.9526445965466
c 0 23.86889156163205 -5.840260701250394 6.855958214511333 -12.696218915761728 6.855958214511333
S 502.2942147730381 967.8215361581787 502.2942147730381 943.9526445965466
s 5.840260701250394 -6.855958214511333 12.696218915761728 -6.855958214511333
S 527.6866526045616 920.0837530349146 527.6866526045616 943.9526445965466
z" fill="none" stroke="none" style="animation-play-state:paused" ></path>


<circle cx="0" cy="0" r="5.975093025327207" fill="#51cacc" opacity="0.9" transform="translate(527.6842651367188 944.7244873046875)" style="opacity:0.9;animation-play-state:paused" ></circle>
<path id="path15" d="M 1129.2220847962424 896.9484341103746
c 0 23.567621646662488 -5.766545722055715 6.76942323893497 -12.535968960990685 6.76942323893497
S 1104.150146874261 920.5160557570371 1104.150146874261 896.9484341103746
s 5.766545722055715 -6.76942323893497 12.535968960990685 -6.76942323893497
S 1129.2220847962424 873.3808124637121 1129.2220847962424 896.9484341103746
z" fill="none" stroke="none" style="animation-play-state:paused" ></path>


<circle cx="0" cy="0" r="5.761823733132427" fill="#9df871" opacity="0.9" transform="translate(1115.8890380859375 890.1038818359375)" style="opacity:0.9;animation-play-state:paused" ></circle>
<path id="path16" d="M 52.53935730024821 694.7136206065462
c 0 24.818355617737506 -6.072576374552793 7.128676613605454 -13.201252988158247 7.128676613605454
S 26.136851323931722 719.5319762242838 26.136851323931722 694.7136206065462
s 6.072576374552793 -7.128676613605454 13.201252988158247 -7.128676613605454
S 52.53935730024821 669.8952649888087 52.53935730024821 694.7136206065462
z" fill="none" stroke="none" style="animation-play-state:paused" ></path>


<circle cx="0" cy="0" r="6.512483225424268" fill="#ff708e" opacity="0.9" transform="translate(52.23105239868164 702.4807739257812)" style="opacity:0.9;animation-play-state:paused" ></circle>
<path id="path17" d="M 270.34155544721165 815.8681288634875
c 0 32.05848567221082 -7.844097558094137 9.208288437762684 -17.05238599585682 9.208288437762684
S 236.236783455498 847.9266145356984 236.236783455498 815.8681288634875
s 7.844097558094137 -9.208288437762684 17.05238599585682 -9.208288437762684
S 270.34155544721165 783.8096431912767 270.34155544721165 815.8681288634875
z" fill="none" stroke="none" style="animation-play-state:paused" ></path>


<circle cx="0" cy="0" r="5.684526856911912" fill="#ff708e" opacity="0.9" transform="translate(236.87179565429688 827.7547607421875)" style="opacity:0.9;animation-play-state:paused" ></circle>
<path id="path18" d="M 579.8829141160284 254.4452443738107
c 0 26.00579259764167 -6.363119465380407 7.469748937620479 -13.832868403000887 7.469748937620479
S 552.2171773100265 280.45103697145237 552.2171773100265 254.4452443738107
s 6.363119465380407 -7.469748937620479 13.832868403000887 -7.469748937620479
S 579.8829141160284 228.43945177616905 579.8829141160284 254.4452443738107
z" fill="none" stroke="none" style="animation-play-state:paused" ></path>


<circle cx="0" cy="0" r="7.840654232576674" fill="#9df871" opacity="0.9" transform="translate(566.4545288085938 261.9330139160156)" style="opacity:0.9;animation-play-state:paused" ></circle>
<path id="path19" d="M 101.27987022584631 776.930037036819
c 0 36.46788718072647 -8.922993671879881 10.474818658293774 -19.397812330173657 10.474818658293774
S 62.48424556549899 813.3979242175456 62.48424556549899 776.930037036819
s 8.922993671879881 -10.474818658293774 19.397812330173657 -10.474818658293774
S 101.27987022584631 740.4621498560925 101.27987022584631 776.930037036819
z" fill="none" stroke="none" style="animation-play-state:paused" ></path>


<circle cx="0" cy="0" r="4.28283888661902" fill="#e0ff77" opacity="0.9" transform="translate(91.78418731689453 760.8777465820312)" style="opacity:0.9;animation-play-state:paused" ></circle>
<path id="path20" d="M 855.3258731448254 67.96799774339823
c 0 19.55300847655114 -4.78424675490081 5.616289668796603 -10.400536423697414 5.616289668796603
S 834.5248002974306 87.52100621994937 834.5248002974306 67.96799774339823
s 4.78424675490081 -5.616289668796603 10.400536423697414 -5.616289668796603
S 855.3258731448254 48.41498926684709 855.3258731448254 67.96799774339823
z" fill="none" stroke="none" style="animation-play-state:paused" ></path>


<circle cx="0" cy="0" r="6.017068409391941" fill="#ff708e" opacity="0.9" transform="translate(834.5698852539062 64.96932220458984)" style="opacity:0.9;animation-play-state:paused" ></circle>
<path id="path21" d="M 850.2200525305535 144.82679497444815
c 0 32.83170380846572 -8.033289229730972 9.430383008814621 -17.463672238545595 9.430383008814621
S 815.2927080534624 177.65849878291385 815.2927080534624 144.82679497444815
s 8.033289229730972 -9.430383008814621 17.463672238545595 -9.430383008814621
S 850.2200525305535 111.99509116598243 850.2200525305535 144.82679497444815
z" fill="none" stroke="none" style="animation-play-state:paused" ></path>


<circle cx="0" cy="0" r="4.872086973782366" fill="#9df871" opacity="0.9" transform="translate(850.0120849609375 136.98623657226562)" style="opacity:0.9;animation-play-state:paused" ></circle>
<path id="path22" d="M 660.6414097244376 542.8435306985805
c 0 36.52800435392794 -8.937703192982367 10.492086356979302 -19.42978954996167 10.492086356979302
S 621.7818306245142 579.3715350525084 621.7818306245142 542.8435306985805
s 8.937703192982367 -10.492086356979302 19.42978954996167 -10.492086356979302
S 660.6414097244376 506.31552634465254 660.6414097244376 542.8435306985805
z" fill="none" stroke="none" style="animation-play-state:paused" ></path>


<circle cx="0" cy="0" r="5.856293961115418" fill="#e0ff77" opacity="0.9" transform="translate(629.2702026367188 560.6210327148438)" style="opacity:0.9;animation-play-state:paused" ></circle>
<path id="path23" d="M 588.4740028598751 874.6900395485334
c 0 20.219964148708577 -4.947438036386141 5.8078620427141665 -10.755300079100307 5.8078620427141665
S 566.9634027016746 894.9100036972419 566.9634027016746 874.6900395485334
s 4.947438036386141 -5.8078620427141665 10.755300079100307 -5.8078620427141665
S 588.4740028598751 854.4700753998249 588.4740028598751 874.6900395485334
z" fill="none" stroke="none" style="animation-play-state:paused" ></path>


<circle cx="0" cy="0" r="7.732456430782366" fill="#ff708e" opacity="0.9" transform="translate(574.9318237304688 881.4552612304688)" style="opacity:0.9;animation-play-state:paused" ></circle>
<path id="path24" d="M 1218.277975622609 532.1629735249021
c 0 26.689224187018247 -6.530342088312975 7.666053755845668 -14.196395844158642 7.666053755845668
S 1189.8851839342917 558.8521977119203 1189.8851839342917 532.1629735249021
s 6.530342088312975 -7.666053755845668 14.196395844158642 -7.666053755845668
S 1218.277975622609 505.4737493378839 1218.277975622609 532.1629735249021
z" fill="none" stroke="none" style="animation-play-state:paused" ></path>


<circle cx="0" cy="0" r="5.622169285895067" fill="#ff708e" opacity="0.9" transform="translate(1192.0186767578125 546.1383666992188)" style="opacity:0.9;animation-play-state:paused" ></circle>
<path id="path25" d="M 280.26441640172663 75.47408627364318
c 0 33.267197774913285 -8.139846264074526 9.55547170130488 -17.695317965379406 9.55547170130488
S 244.87378047096783 108.74128404855647 244.87378047096783 75.47408627364318
s 8.139846264074526 -9.55547170130488 17.695317965379406 -9.55547170130488
S 280.26441640172663 42.206888498729896 280.26441640172663 75.47408627364318
z" fill="none" stroke="none" style="animation-play-state:paused" ></path>


<circle cx="0" cy="0" r="6.070869987174959" fill="#51cacc" opacity="0.9" transform="translate(259.470458984375 85.78564453125)" style="opacity:0.9;animation-play-state:paused" ></circle>
<path id="path26" d="M 1205.1590937787475 70.17897017228165
c 0 27.42232236301337 -6.709717173928803 7.876624508525118 -14.58634168245392 7.876624508525118
S 1175.9864104138398 97.60129253529502 1175.9864104138398 70.17897017228165
s 6.709717173928803 -7.876624508525118 14.58634168245392 -7.876624508525118
S 1205.1590937787475 42.75664780926828 1205.1590937787475 70.17897017228165
z" fill="none" stroke="none" style="animation-play-state:paused" ></path>


<circle cx="0" cy="0" r="7.69209491494575" fill="#de9dd6" opacity="0.9" transform="translate(1182.022216796875 57.16681671142578)" style="opacity:0.9;animation-play-state:paused" ></circle>
<path id="path27" d="M 1286.1186300172578 635.3470687091252
c 0 27.36255534383771 -6.695093328811353 7.859457385995937 -14.554550714807291 7.859457385995937
S 1257.0095285876434 662.7096240529629 1257.0095285876434 635.3470687091252
s 6.695093328811353 -7.859457385995937 14.554550714807291 -7.859457385995937
S 1286.1186300172578 607.9845133652875 1286.1186300172578 635.3470687091252
z" fill="none" stroke="none" style="animation-play-state:paused" ></path>


<circle cx="0" cy="0" r="5.851735412970398" fill="#51cacc" opacity="0.9" transform="translate(1257.0279541015625 637.7041015625)" style="opacity:0.9;animation-play-state:paused" ></circle>
<path id="path28" d="M 1560.897792995717 754.472533412404
c 0 32.36682339403929 -7.9195418942862075 9.296853528075115 -17.216395422361323 9.296853528075115
S 1526.4650021509945 786.8393568064433 1526.4650021509945 754.472533412404
s 7.9195418942862075 -9.296853528075115 17.216395422361323 -9.296853528075115
S 1560.897792995717 722.1057100183647 1560.897792995717 754.472533412404
z" fill="none" stroke="none" style="animation-play-state:paused" ></path>


<circle cx="0" cy="0" r="7.158058521587819" fill="#51cacc" opacity="0.9" transform="translate(1526.4830322265625 751.9326171875)" style="opacity:0.9;animation-play-state:paused" ></circle>
<path id="path29" d="M 1802.3593691699537 282.9130488873364
c 0 31.735376959264453 -7.765039043224281 9.115480615958939 -16.88051965918322 9.115480615958939
S 1768.5983298515873 314.64842584660084 1768.5983298515873 282.9130488873364
s 7.765039043224281 -9.115480615958939 16.88051965918322 -9.115480615958939
S 1802.3593691699537 251.17767192807196 1802.3593691699537 282.9130488873364
z" fill="none" stroke="none" style="animation-play-state:paused" ></path>


<circle cx="0" cy="0" r="4.961465607474786" fill="#e0ff77" opacity="0.9" transform="translate(1802.31884765625 286.6105041503906)" style="opacity:0.9;animation-play-state:paused" ></circle></g></svg>